# Blender v2.91.0 OBJ File: ''
# www.blender.org
mtllib sachB.mtl
o Plane.060_Plane.002
v -2.178573 -0.870930 3.362511
v -2.178573 -0.870930 4.460435
v -3.276498 -0.870930 4.460435
v -3.276497 -0.870930 3.362511
v 0.017274 -0.870930 3.362511
v 0.017274 -0.870930 4.460435
v -1.080650 -0.870930 4.460435
v -1.080650 -0.870930 3.362511
v 2.213123 -0.870930 3.362511
v 2.213123 -0.870930 4.460435
v 1.115199 -0.870930 4.460435
v 1.115199 -0.870930 3.362511
v 4.408971 -0.870930 3.362510
v 4.408971 -0.870930 4.460433
v 3.311047 -0.870930 4.460433
v 3.311048 -0.870930 3.362509
v 3.311047 -0.870930 2.264587
v 3.311047 -0.870930 3.362511
v 2.213123 -0.870930 3.362511
v 2.213123 -0.870930 2.264586
v 1.115199 -0.870930 2.264587
v 1.115199 -0.870930 3.362511
v 0.017274 -0.870930 3.362511
v 0.017275 -0.870930 2.264586
v -1.080649 -0.870930 2.264587
v -1.080649 -0.870930 3.362511
v -2.178573 -0.870930 3.362511
v -2.178572 -0.870930 2.264586
v -3.276498 -0.870930 2.264587
v -3.276498 -0.870930 3.362511
v -4.374422 -0.870930 3.362511
v -4.374421 -0.870930 2.264586
v -2.178573 -0.870930 1.166662
v -2.178573 -0.870930 2.264586
v -3.276498 -0.870930 2.264586
v -3.276497 -0.870930 1.166662
v 0.017274 -0.870930 1.166662
v 0.017274 -0.870930 2.264586
v -1.080650 -0.870930 2.264586
v -1.080650 -0.870930 1.166662
v 2.213123 -0.870930 1.166662
v 2.213123 -0.870930 2.264586
v 1.115199 -0.870930 2.264586
v 1.115199 -0.870930 1.166662
v 4.408971 -0.870930 1.166662
v 4.408971 -0.870930 2.264586
v 3.311047 -0.870930 2.264586
v 3.311048 -0.870930 1.166662
v 3.311047 -0.870930 0.068739
v 3.311047 -0.870930 1.166663
v 2.213123 -0.870930 1.166663
v 2.213123 -0.870930 0.068739
v 1.115199 -0.870930 0.068739
v 1.115199 -0.870930 1.166663
v 0.017274 -0.870930 1.166663
v 0.017275 -0.870930 0.068739
v -1.080649 -0.870930 0.068739
v -1.080649 -0.870930 1.166663
v -2.178573 -0.870930 1.166663
v -2.178572 -0.870930 0.068739
v -3.276498 -0.870930 0.068739
v -3.276498 -0.870930 1.166663
v -4.374422 -0.870930 1.166663
v -4.374421 -0.870930 0.068739
v -2.178573 -0.870930 -1.029185
v -2.178573 -0.870930 0.068739
v -3.276498 -0.870930 0.068739
v -3.276497 -0.870930 -1.029185
v 0.017274 -0.870930 -1.029185
v 0.017274 -0.870930 0.068739
v -1.080650 -0.870930 0.068739
v -1.080650 -0.870930 -1.029185
v 2.213123 -0.870930 -1.029185
v 2.213123 -0.870930 0.068739
v 1.115199 -0.870930 0.068739
v 1.115199 -0.870930 -1.029185
v 4.408971 -0.870930 -1.029185
v 4.408971 -0.870930 0.068739
v 3.311047 -0.870930 0.068739
v 3.311048 -0.870930 -1.029185
v 3.311047 -0.870930 -2.127110
v 3.311047 -0.870930 -1.029185
v 2.213123 -0.870930 -1.029186
v 2.213123 -0.870930 -2.127110
v 1.115199 -0.870930 -2.127110
v 1.115199 -0.870930 -1.029185
v 0.017274 -0.870930 -1.029186
v 0.017275 -0.870930 -2.127110
v -1.080649 -0.870930 -2.127110
v -1.080649 -0.870930 -1.029185
v -2.178573 -0.870930 -1.029186
v -2.178572 -0.870930 -2.127110
v -3.276498 -0.870930 -2.127110
v -3.276498 -0.870930 -1.029185
v -4.374422 -0.870930 -1.029186
v -4.374421 -0.870930 -2.127110
v -2.178573 -0.870930 -3.225033
v -2.178573 -0.870930 -2.127108
v -3.276498 -0.870930 -2.127108
v -3.276497 -0.870930 -3.225033
v 0.017274 -0.870930 -3.225033
v 0.017274 -0.870930 -2.127108
v -1.080650 -0.870930 -2.127108
v -1.080650 -0.870930 -3.225033
v 2.213123 -0.870930 -3.225033
v 2.213123 -0.870930 -2.127108
v 1.115199 -0.870930 -2.127108
v 1.115199 -0.870930 -3.225033
v 4.408971 -0.870930 -3.225033
v 4.408971 -0.870930 -2.127108
v 3.311047 -0.870930 -2.127108
v 3.311048 -0.870930 -3.225033
v 3.311047 -0.870930 -4.322959
v 3.311047 -0.870930 -3.225034
v 2.213123 -0.870930 -3.225034
v 2.213123 -0.870930 -4.322959
v 1.115199 -0.870930 -4.322959
v 1.115199 -0.870930 -3.225034
v 0.017274 -0.870930 -3.225034
v 0.017275 -0.870930 -4.322959
v -1.080649 -0.870930 -4.322959
v -1.080649 -0.870930 -3.225034
v -2.178573 -0.870930 -3.225034
v -2.178572 -0.870930 -4.322959
v -3.276498 -0.870930 -4.322959
v -3.276498 -0.870930 -3.225034
v -4.374422 -0.870930 -3.225034
v -4.374421 -0.870930 -4.322959
vt -0.489162 0.990345
vt -0.983854 0.990346
vt -0.983855 0.495654
vt -0.489162 0.495654
vt 0.500222 0.990345
vt 0.005530 0.990346
vt 0.005530 0.495654
vt 0.500222 0.495654
vt 1.489606 0.990345
vt 0.994914 0.990346
vt 0.994914 0.495654
vt 1.489606 0.495654
vt 0.005530 0.990346
vt -0.489162 0.990347
vt -0.489162 0.495654
vt 0.005530 0.495654
vt -0.489162 1.485037
vt -0.983854 1.485037
vt -0.983854 0.990346
vt -0.489162 0.990346
vt 0.994914 1.485037
vt 0.500222 1.485037
vt 0.500222 0.990346
vt 0.994914 0.990346
vt 0.005530 1.485037
vt -0.489162 1.485037
vt -0.489162 0.990346
vt 0.005530 0.990346
vt 1.489606 1.485037
vt 0.994914 1.485037
vt 0.994914 0.990346
vt 1.489606 0.990346
vt -0.489162 1.979730
vt -0.983854 1.979730
vt -0.983855 1.485038
vt -0.489162 1.485038
vt 0.500222 1.979730
vt 0.005530 1.979730
vt 0.005530 1.485038
vt 0.500222 1.485038
vt 1.489606 1.979730
vt 0.994914 1.979730
vt 0.994914 1.485038
vt 1.489606 1.485038
vt 0.005530 1.979730
vt -0.489162 1.979730
vt -0.489162 1.485038
vt 0.005530 1.485038
vt -0.489162 0.000962
vt -0.983854 0.000962
vt -0.983854 -0.493731
vt -0.489162 -0.493731
vt 0.994914 0.000962
vt 0.500222 0.000962
vt 0.500222 -0.493731
vt 0.994914 -0.493731
vt 0.005530 0.000962
vt -0.489162 0.000962
vt -0.489162 -0.493731
vt 0.005530 -0.493731
vt 1.489606 0.000962
vt 0.994914 0.000962
vt 0.994914 -0.493731
vt 1.489606 -0.493731
vt -0.489162 0.495653
vt -0.983854 0.495653
vt -0.983855 0.000962
vt -0.489162 0.000962
vt 0.500222 0.495653
vt 0.005530 0.495653
vt 0.005530 0.000962
vt 0.500222 0.000962
vt 1.489606 0.495653
vt 0.994914 0.495653
vt 0.994914 0.000962
vt 1.489606 0.000962
vt 0.005530 0.495653
vt -0.489162 0.495653
vt -0.489162 0.000962
vt 0.005530 0.000962
vt -0.489162 0.990346
vt -0.983854 0.990346
vt -0.983854 0.495653
vt -0.489162 0.495653
vt 0.994914 0.990346
vt 0.500222 0.990346
vt 0.500222 0.495653
vt 0.994914 0.495653
vt 0.005530 0.990346
vt -0.489162 0.990346
vt -0.489162 0.495653
vt 0.005530 0.495653
vt 1.489606 0.990346
vt 0.994914 0.990346
vt 0.994914 0.495653
vt 1.489606 0.495653
vt -0.489162 1.485037
vt -0.983854 1.485037
vt -0.983855 0.990345
vt -0.489162 0.990345
vt 0.500222 1.485037
vt 0.005530 1.485037
vt 0.005530 0.990345
vt 0.500222 0.990345
vt 1.489606 1.485037
vt 0.994914 1.485037
vt 0.994914 0.990345
vt 1.489606 0.990345
vt 0.005530 1.485037
vt -0.489162 1.485037
vt -0.489162 0.990345
vt 0.005530 0.990345
vt -0.489162 1.979730
vt -0.983854 1.979730
vt -0.983854 1.485037
vt -0.489162 1.485037
vt 0.994914 1.979730
vt 0.500222 1.979730
vt 0.500222 1.485037
vt 0.994914 1.485037
vt 0.005530 1.979730
vt -0.489162 1.979730
vt -0.489162 1.485037
vt 0.005530 1.485037
vt 1.489606 1.979730
vt 0.994914 1.979730
vt 0.994914 1.485037
vt 1.489606 1.485037
vn 0.0000 1.0000 0.0000
usemtl Lyse-brikker.002
s off
f 1/1/1 4/2/1 3/3/1 2/4/1
f 5/5/1 8/6/1 7/7/1 6/8/1
f 9/9/1 12/10/1 11/11/1 10/12/1
f 13/13/1 16/14/1 15/15/1 14/16/1
f 17/17/1 20/18/1 19/19/1 18/20/1
f 21/21/1 24/22/1 23/23/1 22/24/1
f 25/25/1 28/26/1 27/27/1 26/28/1
f 29/29/1 32/30/1 31/31/1 30/32/1
f 33/33/1 36/34/1 35/35/1 34/36/1
f 37/37/1 40/38/1 39/39/1 38/40/1
f 41/41/1 44/42/1 43/43/1 42/44/1
f 45/45/1 48/46/1 47/47/1 46/48/1
f 49/49/1 52/50/1 51/51/1 50/52/1
f 53/53/1 56/54/1 55/55/1 54/56/1
f 57/57/1 60/58/1 59/59/1 58/60/1
f 61/61/1 64/62/1 63/63/1 62/64/1
f 65/65/1 68/66/1 67/67/1 66/68/1
f 69/69/1 72/70/1 71/71/1 70/72/1
f 73/73/1 76/74/1 75/75/1 74/76/1
f 77/77/1 80/78/1 79/79/1 78/80/1
f 81/81/1 84/82/1 83/83/1 82/84/1
f 85/85/1 88/86/1 87/87/1 86/88/1
f 89/89/1 92/90/1 91/91/1 90/92/1
f 93/93/1 96/94/1 95/95/1 94/96/1
f 97/97/1 100/98/1 99/99/1 98/100/1
f 101/101/1 104/102/1 103/103/1 102/104/1
f 105/105/1 108/106/1 107/107/1 106/108/1
f 109/109/1 112/110/1 111/111/1 110/112/1
f 113/113/1 116/114/1 115/115/1 114/116/1
f 117/117/1 120/118/1 119/119/1 118/120/1
f 121/121/1 124/122/1 123/123/1 122/124/1
f 125/125/1 128/126/1 127/127/1 126/128/1
