# Blender v2.91.0 OBJ File: ''
# www.blender.org
mtllib sachO.mtl
o Ramme.001_Plane.001
v -4.429317 -0.870930 -4.377853
v -5.527242 -0.925826 -5.475779
v 5.561791 -1.090515 -5.475779
v 4.463867 -1.090515 -4.377855
v 5.561791 -0.925826 -5.475779
v 4.463868 -0.870930 4.515332
v 5.561793 -0.925826 5.613256
v -5.527242 -0.925826 5.613256
v -4.429317 -0.870930 4.515332
v 4.463867 -0.870930 -4.377855
v -4.429317 -1.090515 -4.377853
v -5.527242 -1.090515 -5.475779
v -4.429317 -1.090515 4.515332
v -5.527242 -1.090515 5.613256
v 5.561793 -1.090515 5.613256
v 4.463868 -1.090515 4.515332
vt 0.804586 0.257814
vt 0.804586 -1.840763
vt 1.063669 -2.099845
vt 1.063670 0.516898
vt 0.094684 0.750073
vt 0.094684 2.848650
vt 0.146501 2.848650
vt 0.146501 0.750073
vt 0.107638 0.516898
vt 0.107638 -2.099845
vt 0.146501 -2.099846
vt 0.146501 0.516898
vt 1.063670 0.490990
vt 0.804586 0.750073
vt 0.804587 2.848650
vt 1.063670 3.107733
vt 0.982136 -0.385969
vt 0.982136 2.573856
vt 1.275188 2.280804
vt 1.275188 -0.092917
vt 0.936642 -0.386561
vt 0.936642 2.573263
vt 0.980600 2.573263
vt 0.980600 -0.386562
vt 1.281294 2.277772
vt 1.281294 -0.095949
vt 1.339904 -0.095949
vt 1.339905 2.277772
vt 0.982136 -0.385969
vt 1.275188 -0.092917
vt 1.275188 2.280804
vt 0.982136 2.573856
vt 0.982136 -0.385969
vt 0.982136 2.573856
vt 1.275188 2.280804
vt 1.275188 -0.092917
vt 0.936642 -0.386561
vt 0.936642 2.573263
vt 0.980600 2.573263
vt 0.980600 -0.386562
vt 1.281294 2.277772
vt 1.281294 -0.095949
vt 1.339904 -0.095949
vt 1.339905 2.277772
vt 0.982136 -0.385969
vt 1.275188 -0.092917
vt 1.275188 2.280804
vt 0.982136 2.573856
vt 0.001427 0.750073
vt 0.001427 2.848649
vt -0.257656 3.107733
vt -0.257657 0.490989
vt 0.107638 0.490989
vt 0.107638 3.107733
vt 0.146501 3.107733
vt 0.146501 0.490989
vt 0.094684 0.257814
vt 0.094684 -1.840763
vt 0.146501 -1.840763
vt 0.146501 0.257814
vt 1.037761 0.516898
vt 1.296844 0.257814
vt 1.296845 -1.840763
vt 1.037761 -2.099846
vn 0.0000 0.9988 0.0499
vn 0.0000 0.0000 -1.0000
vn 0.0000 0.0000 1.0000
vn 0.0000 -1.0000 -0.0000
vn -1.0000 0.0000 0.0000
vn 1.0000 0.0000 0.0000
vn -0.0499 0.9988 0.0000
vn 0.0499 0.9988 -0.0000
vn -0.0000 0.9988 -0.0499
usemtl Mrke-brikker_lodr.001
s off
f 6/1/1 9/2/1 8/3/1 7/4/1
f 9/5/2 6/6/2 16/7/2 13/8/2
f 7/9/3 8/10/3 14/11/3 15/12/3
f 14/13/4 13/14/4 16/15/4 15/16/4
f 14/17/4 12/18/4 11/19/4 13/20/4
f 12/21/5 14/22/5 8/23/5 2/24/5
f 1/25/6 9/26/6 13/27/6 11/28/6
f 8/29/7 9/30/7 1/31/7 2/32/7
f 3/33/4 15/34/4 16/35/4 4/36/4
f 15/37/6 3/38/6 5/39/6 7/40/6
f 6/41/5 10/42/5 4/43/5 16/44/5
f 5/45/8 10/46/8 6/47/8 7/48/8
f 1/49/9 10/50/9 5/51/9 2/52/9
f 2/53/2 5/54/2 3/55/2 12/56/2
f 10/57/3 1/58/3 11/59/3 4/60/3
f 3/61/4 4/62/4 11/63/4 12/64/4
